<svg xmlns="http://www.w3.org/2000/svg" viewBox="0 0 64 64" width="64" height="64">
  <g fill="#5E6C50">
    <ellipse cx="32" cy="16.5" rx="4" ry="11" transform="rotate(0 32 32)"/>
    <ellipse cx="32" cy="16.5" rx="4" ry="11" transform="rotate(22.5 32 32)"/>
    <ellipse cx="32" cy="16.5" rx="4" ry="11" transform="rotate(45 32 32)"/>
    <ellipse cx="32" cy="16.5" rx="4" ry="11" transform="rotate(67.5 32 32)"/>
    <ellipse cx="32" cy="16.5" rx="4" ry="11" transform="rotate(90 32 32)"/>
    <ellipse cx="32" cy="16.5" rx="4" ry="11" transform="rotate(112.5 32 32)"/>
    <ellipse cx="32" cy="16.5" rx="4" ry="11" transform="rotate(135 32 32)"/>
    <ellipse cx="32" cy="16.5" rx="4" ry="11" transform="rotate(157.5 32 32)"/>
    <ellipse cx="32" cy="16.5" rx="4" ry="11" transform="rotate(180 32 32)"/>
    <ellipse cx="32" cy="16.5" rx="4" ry="11" transform="rotate(202.5 32 32)"/>
    <ellipse cx="32" cy="16.5" rx="4" ry="11" transform="rotate(225 32 32)"/>
    <ellipse cx="32" cy="16.5" rx="4" ry="11" transform="rotate(247.5 32 32)"/>
    <ellipse cx="32" cy="16.5" rx="4" ry="11" transform="rotate(270 32 32)"/>
    <ellipse cx="32" cy="16.5" rx="4" ry="11" transform="rotate(292.5 32 32)"/>
    <ellipse cx="32" cy="16.5" rx="4" ry="11" transform="rotate(315 32 32)"/>
    <ellipse cx="32" cy="16.5" rx="4" ry="11" transform="rotate(337.5 32 32)"/>
  </g>
  <circle cx="32" cy="32" r="8.5" fill="#5E6C50"/>
</svg>
